<?xml version="1.0" standalone="no"?>
<!DOCTYPE svg PUBLIC "-//W3C//DTD SVG 20010904//EN"
 "http://www.w3.org/TR/2001/REC-SVG-20010904/DTD/svg10.dtd">
<svg version="1.0" xmlns="http://www.w3.org/2000/svg"
 width="384.000000pt" height="507.000000pt" viewBox="0 0 384.000000 507.000000"
 preserveAspectRatio="xMidYMid meet">
<metadata>
Created by potrace 1.16, written by Peter Selinger 2001-2019
</metadata>
<g transform="translate(0.000000,507.000000) scale(0.100000,-0.100000)"
fill="#000000" stroke="none">
<path d="M1822 5058 c-7 -7 -34 -20 -60 -30 -26 -9 -97 -34 -157 -56 -303
-109 -601 -303 -707 -461 -28 -42 -104 -130 -169 -197 -64 -66 -123 -134 -132
-150 -24 -47 -57 -163 -57 -201 0 -19 -7 -62 -15 -94 -14 -53 -14 -65 0 -118
8 -32 15 -74 15 -92 0 -42 41 -204 62 -244 8 -16 21 -55 28 -85 7 -30 19 -68
28 -84 8 -17 25 -70 39 -120 34 -128 87 -198 209 -278 98 -63 339 -327 353
-385 18 -72 57 -106 165 -143 150 -50 258 -144 337 -290 16 -30 67 -107 114
-170 46 -63 102 -146 123 -185 21 -38 47 -84 58 -102 23 -40 1 -73 -50 -73
-106 -1 -102 -86 9 -177 86 -71 145 -139 145 -165 0 -29 -76 -145 -111 -171
-17 -12 -52 -22 -92 -26 -53 -6 -71 -12 -101 -39 -47 -41 -55 -40 -138 11
-167 102 -224 141 -272 186 -28 26 -78 68 -111 93 -33 25 -73 60 -90 78 -16
18 -57 53 -90 78 -33 25 -86 70 -118 99 -32 29 -77 63 -98 74 -22 11 -77 48
-122 81 -45 33 -96 67 -114 74 -43 18 -183 18 -253 -1 -30 -8 -85 -15 -121
-15 -137 0 -244 -57 -283 -151 -8 -19 -22 -41 -30 -49 -23 -18 -23 -301 -1
-320 22 -18 22 -202 0 -220 -22 -18 -22 -242 0 -260 11 -10 15 -36 15 -110 0
-263 159 -420 350 -346 19 8 70 27 112 44 97 37 149 78 191 150 43 74 64 85
131 65 83 -25 274 -126 380 -202 55 -39 104 -71 110 -71 5 0 53 -20 105 -45
53 -24 137 -55 187 -68 49 -14 106 -33 125 -42 19 -11 65 -20 106 -23 44 -3
77 -10 84 -18 17 -21 272 -20 288 0 7 8 27 18 44 21 63 14 224 106 344 197
231 176 278 216 399 340 151 154 182 209 194 342 5 50 14 107 19 126 6 20 11
122 11 235 0 221 -43 439 -120 614 -29 67 -81 256 -95 344 -8 47 -70 114 -142
151 -26 13 -73 46 -103 72 -62 53 -88 66 -185 90 -63 16 -74 23 -167 111 -73
69 -119 104 -180 134 -67 34 -104 63 -223 179 -114 111 -157 146 -216 176
-185 93 -182 86 -192 434 -4 157 -8 310 -9 340 -3 114 72 230 192 296 30 17
79 46 109 65 54 34 54 34 215 37 261 6 404 -49 465 -179 21 -44 136 -164 249
-257 28 -23 79 -83 113 -133 51 -75 80 -104 158 -163 160 -121 160 -121 339
-32 70 35 150 71 178 80 84 27 140 69 174 129 17 30 39 62 50 72 19 17 20 32
20 427 0 466 12 414 -134 566 -83 85 -97 88 -176 36 -74 -49 -112 -86 -173
-168 -51 -69 -51 -69 -57 -162 -9 -170 -68 -179 -160 -24 -40 68 -141 154
-237 204 -48 26 -116 67 -150 94 -34 26 -110 84 -170 129 -59 45 -122 93 -139
107 -32 26 -32 26 -321 26 -217 0 -292 -3 -301 -12z"/>
</g>
</svg>
