<?xml version="1.0" standalone="no"?>
<!DOCTYPE svg PUBLIC "-//W3C//DTD SVG 20010904//EN"
 "http://www.w3.org/TR/2001/REC-SVG-20010904/DTD/svg10.dtd">
<svg version="1.0" xmlns="http://www.w3.org/2000/svg"
 width="387.000000pt" height="447.000000pt" viewBox="0 0 387.000000 447.000000"
 preserveAspectRatio="xMidYMid meet">
<metadata>
Created by potrace 1.16, written by Peter Selinger 2001-2019
</metadata>
<g transform="translate(0.000000,447.000000) scale(0.100000,-0.100000)"
fill="#000000" stroke="none">
<path d="M3084 4449 c-28 -31 -76 -53 -209 -93 -610 -187 -614 -190 -459 -308
33 -26 80 -73 104 -105 24 -32 56 -73 72 -91 15 -18 28 -44 28 -58 0 -34 -72
-175 -130 -254 -58 -80 -74 -111 -90 -177 -12 -52 -62 -134 -124 -203 -18 -20
-65 -83 -104 -142 -149 -219 -216 -238 -294 -84 -11 23 -29 53 -39 68 -11 14
-34 52 -53 85 -85 148 -126 206 -223 311 -185 201 -196 232 -103 313 89 79
143 193 120 253 -15 42 -122 148 -224 224 -90 67 -90 67 -260 73 -94 3 -194
11 -222 19 -45 11 -61 11 -118 -4 -36 -9 -79 -16 -97 -16 -17 0 -57 -6 -88
-14 -31 -8 -77 -17 -102 -21 -57 -7 -119 -47 -188 -119 -75 -80 -73 -88 57
-213 119 -115 110 -111 244 -116 129 -4 161 -25 228 -147 46 -85 182 -289 328
-492 135 -189 288 -408 412 -591 141 -208 144 -219 82 -301 -22 -28 -47 -66
-56 -84 -10 -19 -58 -94 -107 -169 -49 -74 -89 -140 -89 -148 0 -7 -27 -54
-60 -105 -33 -50 -85 -140 -115 -201 -33 -65 -75 -131 -105 -164 -28 -31 -61
-80 -75 -110 -15 -35 -44 -74 -84 -110 -43 -41 -65 -70 -76 -104 -8 -25 -29
-66 -46 -91 -16 -25 -42 -67 -56 -94 -34 -67 -112 -140 -170 -161 -26 -10 -86
-35 -133 -56 -47 -21 -104 -43 -128 -49 -31 -8 -57 -25 -88 -58 -25 -26 -67
-60 -94 -77 -152 -94 -150 -92 -150 -161 0 -61 1 -64 28 -70 15 -4 43 -15 62
-24 19 -10 58 -23 86 -29 32 -8 61 -23 75 -38 77 -83 141 -100 259 -68 44 12
114 15 345 13 316 -2 348 3 400 62 11 12 43 37 72 56 66 42 79 64 87 144 9 91
-9 117 -111 166 -135 64 -141 83 -60 172 58 65 130 154 196 246 25 33 94 129
155 211 61 83 149 210 196 283 260 407 237 395 369 190 82 -126 197 -310 265
-423 23 -38 57 -95 76 -125 18 -30 46 -78 62 -106 15 -28 45 -71 67 -95 21
-24 66 -84 100 -132 34 -49 71 -102 83 -118 29 -39 16 -66 -56 -114 -111 -73
-189 -205 -170 -288 10 -46 80 -109 153 -137 36 -14 78 -30 95 -37 17 -7 50
-12 72 -12 24 -1 47 -7 54 -16 18 -22 212 -22 230 0 10 12 39 15 140 15 210 0
275 33 473 234 67 69 90 130 57 151 -6 4 -28 30 -50 60 -45 61 -86 84 -216
118 -49 14 -105 32 -123 41 -18 10 -66 21 -107 26 -102 11 -156 64 -244 240
-18 36 -45 83 -60 105 -15 22 -49 82 -74 134 -26 51 -62 117 -80 145 -59 93
-99 160 -146 246 -56 102 -93 164 -176 291 -34 53 -77 125 -94 160 -18 34 -54
92 -81 127 -76 100 -83 156 -31 230 28 39 217 420 232 467 47 147 271 500 482
760 43 54 65 88 140 223 21 38 43 61 75 80 25 15 81 59 123 97 42 39 98 88
123 111 70 60 66 82 -29 188 -61 68 -92 93 -153 125 -42 22 -85 49 -95 60 -28
31 -164 31 -192 0z"/>
</g>
</svg>
