<?xml version="1.0" standalone="no"?>
<!DOCTYPE svg PUBLIC "-//W3C//DTD SVG 20010904//EN"
 "http://www.w3.org/TR/2001/REC-SVG-20010904/DTD/svg10.dtd">
<svg version="1.0" xmlns="http://www.w3.org/2000/svg"
 width="288.000000pt" height="306.000000pt" viewBox="0 0 288.000000 306.000000"
 preserveAspectRatio="xMidYMid meet">
<metadata>
Created by potrace 1.16, written by Peter Selinger 2001-2019
</metadata>
<g transform="translate(0.000000,306.000000) scale(0.100000,-0.100000)"
fill="#000000" stroke="none">
<path d="M1191 3046 c-8 -9 -41 -15 -100 -18 -81 -4 -95 -7 -143 -38 -29 -18
-91 -54 -138 -80 -47 -25 -99 -55 -115 -66 -17 -12 -59 -36 -94 -54 -35 -17
-87 -46 -115 -64 -28 -18 -78 -48 -110 -67 -137 -79 -181 -140 -222 -307 -10
-37 -33 -98 -52 -137 -34 -68 -36 -75 -43 -220 -8 -154 -25 -255 -47 -277 -19
-19 -17 -421 3 -438 10 -8 15 -30 15 -65 0 -29 13 -94 29 -146 15 -52 38 -137
51 -189 72 -297 465 -733 710 -785 19 -4 77 -20 129 -36 51 -16 110 -29 131
-29 21 0 43 -7 50 -15 21 -25 506 -22 534 4 12 10 46 26 76 36 30 10 111 46
180 80 69 34 148 70 175 79 81 26 114 53 277 221 175 182 337 407 391 545 67
171 87 236 87 291 0 38 5 61 15 69 12 10 15 43 15 175 0 132 -3 165 -15 175
-8 7 -15 29 -15 49 0 20 -7 61 -15 91 -8 30 -15 78 -15 105 0 51 -46 242 -74
308 -41 99 -245 371 -321 430 -50 38 -278 158 -325 172 -14 3 -63 24 -110 45
-140 64 -210 90 -310 117 -52 13 -102 31 -111 39 -22 20 -361 21 -378 0z m219
-391 c30 -8 71 -15 91 -15 49 0 158 -34 239 -75 36 -18 83 -38 105 -45 118
-38 274 -159 335 -260 14 -22 42 -68 63 -101 63 -102 113 -209 152 -329 46
-143 45 -194 -4 -262 -36 -50 -38 -61 -26 -154 10 -80 -15 -164 -97 -328 -84
-168 -214 -298 -481 -484 -64 -44 -84 -51 -202 -72 -69 -12 -72 -12 -123 14
-47 24 -61 26 -177 26 -153 0 -328 49 -432 121 -32 22 -88 60 -124 84 -172
117 -326 331 -335 470 -3 33 -12 94 -21 137 -15 70 -15 81 1 142 9 36 16 95
16 131 0 102 64 286 137 395 31 47 71 110 89 140 105 182 124 207 203 269 94
73 117 82 175 75 43 -6 45 -5 99 50 49 51 58 56 98 56 24 0 67 7 94 14 65 18
61 18 125 1z"/>
</g>
</svg>
